<?xml version="1.0" standalone="no"?><!DOCTYPE svg PUBLIC "-//W3C//DTD SVG 1.1//EN" "http://www.w3.org/Graphics/SVG/1.1/DTD/svg11.dtd"><svg t="1557737456228" class="icon" style="" viewBox="0 0 1024 1024" version="1.1" xmlns="http://www.w3.org/2000/svg" p-id="5386" xmlns:xlink="http://www.w3.org/1999/xlink" width="22" height="22"><defs><style type="text/css"></style></defs><path d="M0 682.821818m42.821818 0l938.356364 0q42.821818 0 42.821818 42.821818l0 255.534546q0 42.821818-42.821818 42.821818l-938.356364 0q-42.821818 0-42.821818-42.821818l0-255.534546q0-42.821818 42.821818-42.821818Z" fill="#FF4747" p-id="5387"></path><path d="M0 0m42.821818 0l938.356364 0q42.821818 0 42.821818 42.821818l0 255.534546q0 42.821818-42.821818 42.821818l-938.356364 0q-42.821818 0-42.821818-42.821818l0-255.534546q0-42.821818 42.821818-42.821818Z" fill="#3FCD67" p-id="5388"></path><path d="M0 341.178182m42.821818 0l938.356364 0q42.821818 0 42.821818 42.821818l0 255.534545q0 42.821818-42.821818 42.821819l-938.356364 0q-42.821818 0-42.821818-42.821819l0-255.534545q0-42.821818 42.821818-42.821818Z" fill="#4A90E2" p-id="5389"></path><path d="M398.429091 0h227.607273v1024H398.429091z" fill="#F5A623" p-id="5390"></path><path d="M682.821818 654.429091H341.178182V426.821818h341.178182z m-298.821818-42.821818h256v-142.429091h-256z" fill="#FFFFFF" p-id="5391"></path></svg>