<?xml version="1.0" standalone="no"?><!DOCTYPE svg PUBLIC "-//W3C//DTD SVG 1.1//EN" "http://www.w3.org/Graphics/SVG/1.1/DTD/svg11.dtd"><svg t="1557737313178" class="icon" style="" viewBox="0 0 1024 1024" version="1.1" xmlns="http://www.w3.org/2000/svg" p-id="4461" xmlns:xlink="http://www.w3.org/1999/xlink" width="22" height="22"><defs><style type="text/css"></style></defs><path d="M0 0m93.090909 0l837.818182 0q93.090909 0 93.090909 93.090909l0 837.818182q0 93.090909-93.090909 93.090909l-837.818182 0q-93.090909 0-93.090909-93.090909l0-837.818182q0-93.090909 93.090909-93.090909Z" fill="#222126" p-id="4462"></path><path d="M279.272727 546.443636V372.363636c0-61.44 89.832727-163.374545 107.054546-127.069091v289.512728a145.687273 145.687273 0 0 0 41.425454 109.847272 139.636364 139.636364 0 0 0 101.934546 39.563637 139.636364 139.636364 0 0 0 102.865454-39.563637 147.549091 147.549091 0 0 0 40.494546-109.847272V245.294545c18.152727-35.374545 106.589091 65.163636 106.589091 125.207273v175.941818a235.985455 235.985455 0 0 1-72.145455 176.407273A251.345455 251.345455 0 0 1 529.687273 791.272727a250.414545 250.414545 0 0 1-176.872728-68.421818A229.003636 229.003636 0 0 1 279.272727 546.443636z m249.483637-180.596363a15.36 15.36 0 0 1-16.756364-15.36v-102.4a15.36 15.36 0 1 1 30.254545 0v102.4a15.36 15.36 0 0 1-13.032727 15.36z" fill="#3B3A40" p-id="4463"></path></svg>