<?xml version="1.0" encoding="UTF-8"?>
<svg width="14px" height="14px" viewBox="0 0 14 14" version="1.1" xmlns="http://www.w3.org/2000/svg" xmlns:xlink="http://www.w3.org/1999/xlink">
    <!-- Generator: Sketch 49.2 (51160) - http://www.bohemiancoding.com/sketch -->
    <title>磁盘icon copy 2</title>
    <desc>Created with Sketch.</desc>
    <defs>
        <polygon id="path-1" points="1.65680473e-06 0.00460243605 13.9842769 0.00460243605 13.9842769 11.032885 1.65680473e-06 11.032885"></polygon>
        <polygon id="path-3" points="3.31360947e-06 0.0136589525 13.9842769 0.0136589525 13.9842769 8.83667211 3.31360947e-06 8.83667211"></polygon>
    </defs>
    <g id="PC端" stroke="none" stroke-width="1" fill="none" fill-rule="evenodd" opacity="0.5">
        <g id="磁盘icon-copy-2">
            <g id="Page-1">
                <path d="M10.3983915,11.7810597 C10.4004625,12.0438368 10.5377288,12.2857759 10.7590116,12.4167893 C10.9802779,12.5478197 11.2524909,12.5482801 11.4742211,12.4180512 C11.6957524,12.2869695 11.8323063,12.0440414 11.8323063,11.7810597 C11.8323063,11.518078 11.6957524,11.2751498 11.4742211,11.1440682 C11.2523583,11.0129013 10.9794992,11.0129013 10.7575867,11.1440682 C10.5356578,11.274877 10.3985903,11.5178051 10.3983915,11.7810597" id="Fill-1" fill="#BD10E0"></path>
                <g id="Group-5" transform="translate(0.000000, 2.953454)">
                    <mask id="mask-2" fill="white">
                        <use xlink:href="#path-1"></use>
                    </mask>
                    <g id="Clip-4"></g>
                    <path d="M3.6193413,1.8429849 C3.6193413,2.49950134 4.2653626,3.10579854 5.3140703,3.43451717 C6.36368923,3.76231498 7.65488686,3.76231498 8.70359456,3.43451717 C9.75321349,3.10579854 10.3983898,2.49950134 10.3983898,1.84206407 C10.3983898,0.826902071 8.88098864,0.00460243605 7.00886556,0.00460243605 C5.13674249,0.00460243605 3.6193413,0.827839951 3.6193413,1.8429849 Z M13.9842786,7.37948185 C13.9842786,6.96596175 13.6920017,6.69032716 13.2567591,6.62138441 L0.728415858,6.62138441 C0.352917633,6.68746236 0.0600608284,6.99234178 1.65680473e-06,7.37948185 L1.65680473e-06,10.205913 C1.65680473e-06,10.6194331 0.43796142,11.032885 0.874098698,11.032885 L13.1101815,11.032885 C13.6195827,11.032885 13.9842786,10.6194331 13.9842786,10.205913 L13.9842786,7.37948185 Z M1.74721822,9.65457564 C1.74721822,9.79239294 1.60244663,9.93027844 1.45585254,9.93027844 C1.31023598,9.93027844 1.16455314,9.79239294 1.16455314,9.65457564 L1.16455314,7.99969379 C1.16455314,7.86187649 1.30932473,7.7240592 1.45585254,7.7240592 C1.60244663,7.7240592 1.74812947,7.86187649 1.74812947,7.99969379 L1.74812947,9.65457564 L1.74721822,9.65457564 Z M3.69047897,9.65457564 C3.69047897,9.79239294 3.54479613,9.93027844 3.39826832,9.93027844 C3.25349673,9.93027844 3.10690264,9.79239294 3.10690264,9.65457564 L3.10690264,7.99969379 C3.10690264,7.86187649 3.25258548,7.7240592 3.39826832,7.7240592 C3.54479613,7.7240592 3.69047897,7.86187649 3.69047897,7.99969379 L3.69047897,9.65457564 Z M5.63378943,9.65457564 C5.63378943,9.79239294 5.48719535,9.93027844 5.3415125,9.93027844 C5.19582966,9.93027844 5.04925215,9.79239294 5.04925215,9.65457564 L5.04925215,7.99969379 C5.04925215,7.86187649 5.19582966,7.7240592 5.3415125,7.7240592 C5.48719535,7.7240592 5.63378943,7.86187649 5.63378943,7.99969379 L5.63378943,9.65457564 Z M7.57618864,9.65457564 C7.57618864,9.79239294 7.4305058,9.93027844 7.28392828,9.93027844 C7.13824544,9.93027844 6.9925626,9.79239294 6.9925626,9.65457564 L6.9925626,7.99969379 C6.9925626,7.86187649 7.1373342,7.7240592 7.28392828,7.7240592 C7.4305058,7.7240592 7.57618864,7.86187649 7.57618864,7.99969379 L7.57618864,9.65457564 Z" id="Fill-3" fill="#919093" mask="url(#mask-2)"></path>
                </g>
                <g id="Group-8" transform="translate(0.000000, 0.003393)">
                    <mask id="mask-4" fill="white">
                        <use xlink:href="#path-3"></use>
                    </mask>
                    <g id="Clip-7"></g>
                    <path d="M0.600793846,8.69138587 L13.6078045,8.69138587 C13.7589217,8.76312521 13.9073217,8.76312521 13.9842802,8.83667211 L12.5555347,0.808993666 C12.4053288,0.375010719 11.9537832,0.0136538368 11.5041098,0.0136538368 L2.48287432,0.0136538368 C2.03043408,0.0136538368 1.57984947,0.375010719 1.50562462,0.808993666 L3.31360947e-06,8.83667211 C0.151120473,8.76498392 0.226190296,8.76498392 0.376412781,8.69138587 L0.600793846,8.69138587 Z M6.99074178,2.32791693 C9.39673704,2.32791693 11.2018755,3.48360755 11.2018755,4.93179756 C11.2018755,6.37898149 9.39673704,7.53569525 6.99074178,7.53569525 C4.65989917,7.53569525 2.78058556,6.37898149 2.78058556,4.93179756 C2.78058556,3.48360755 4.65989917,2.32791693 6.99074178,2.32791693 Z" id="Fill-6" fill="#919093" mask="url(#mask-4)"></path>
                </g>
            </g>
        </g>
    </g>
</svg>