<?xml version="1.0" standalone="no"?><!DOCTYPE svg PUBLIC "-//W3C//DTD SVG 1.1//EN" "http://www.w3.org/Graphics/SVG/1.1/DTD/svg11.dtd"><svg t="1557737404481" class="icon" style="" viewBox="0 0 1024 1024" version="1.1" xmlns="http://www.w3.org/2000/svg" p-id="4883" xmlns:xlink="http://www.w3.org/1999/xlink" width="22" height="22"><defs><style type="text/css"></style></defs><path d="M0 0m93.090909 0l837.818182 0q93.090909 0 93.090909 93.090909l0 837.818182q0 93.090909-93.090909 93.090909l-837.818182 0q-93.090909 0-93.090909-93.090909l0-837.818182q0-93.090909 93.090909-93.090909Z" fill="#4A90E2" p-id="4884"></path><path d="M701.44 748.450909h-105.192727a8.378182 8.378182 0 0 1-9.774546-6.981818l-64.232727-224.814546-65.163636 225.28a8.378182 8.378182 0 0 1-9.774546 6.981819H342.109091a8.378182 8.378182 0 0 1-9.774546-6.981819L199.68 291.374545a4.654545 4.654545 0 0 1 4.654545-6.981818h139.636364a7.912727 7.912727 0 0 1 8.843636 6.981818l51.665455 245.76 64.232727-245.76a8.378182 8.378182 0 0 1 9.774546-6.981818h84.712727a8.378182 8.378182 0 0 1 9.774545 6.981818l67.025455 245.76 49.803636-245.76a7.912727 7.912727 0 0 1 8.378182-6.981818h139.636364a4.654545 4.654545 0 0 1 4.654545 6.981818l-133.12 450.56a8.378182 8.378182 0 0 1-7.912727 6.516364z" fill="#FFFFFF" p-id="4885"></path></svg>