<?xml version="1.0" encoding="UTF-8"?>
<svg width="13px" height="16px" viewBox="0 0 13 16" version="1.1" xmlns="http://www.w3.org/2000/svg" xmlns:xlink="http://www.w3.org/1999/xlink">
    <!-- Generator: Sketch 49.2 (51160) - http://www.bohemiancoding.com/sketch -->
    <title>下载icon</title>
    <desc>Created with Sketch.</desc>
    <defs></defs>
    <g id="Page-1" stroke="none" stroke-width="1" fill="none" fill-rule="evenodd">
        <g id="下载icon" fill="#FFFFFF" fill-rule="nonzero">
            <path d="M5.29758025,12.3586207 C5.39871607,12.456705 5.49985185,12.5547893 5.60098766,12.5547893 C5.70212347,12.6528736 5.90439507,12.6528736 6.00553086,12.6528736 C6.10666667,12.6528736 6.30893826,12.6528736 6.41007407,12.5547893 C6.51120988,12.456705 6.61234567,12.456705 6.71348148,12.3586207 L11.8714074,7.35632184 C12.2759506,6.96398467 12.2759506,6.37547892 11.8714074,5.98314177 C11.4668642,5.59080462 10.8600494,5.5908046 10.4555062,5.98314177 L7.1180247,9.21992338 L7.1180247,0.98084292 C7.1180247,0.392337172 6.71348148,0 6.10666667,0 C5.49985185,0 5.09530863,0.392337172 5.09530863,0.98084292 L5.09530863,9.21992338 L1.75782715,5.98314177 C1.35328393,5.5908046 0.74646912,5.5908046 0.341925926,5.98314177 C-0.0626172681,6.37547894 -0.0626172919,6.96398469 0.341925926,7.35632184 L5.29758025,12.3586207 Z M11.2563088,14 L0.775296136,14 C0.319599934,14 0.0158024592,14.4 0.015802477,15 C0.0158024948,15.6 0.319599951,16 0.775296136,16 L11.2563088,16 C11.712005,16 12.0158025,15.6 12.0158025,15 C12.0158025,14.4 11.712005,14 11.2563088,14 Z" id="Shape"></path>
        </g>
    </g>
</svg>