<?xml version="1.0" standalone="no"?><!DOCTYPE svg PUBLIC "-//W3C//DTD SVG 1.1//EN" "http://www.w3.org/Graphics/SVG/1.1/DTD/svg11.dtd"><svg t="1557737421471" class="icon" style="" viewBox="0 0 1024 1024" version="1.1" xmlns="http://www.w3.org/2000/svg" p-id="5133" xmlns:xlink="http://www.w3.org/1999/xlink" width="22" height="22"><defs><style type="text/css"></style></defs><path d="M63.768932 0.001862h896.462602A64.232523 64.232523 0 0 1 1023.998604 64.234385v895.997149A63.76707 63.76707 0 0 1 960.231534 1023.998604H64.234385A63.76707 63.76707 0 0 1 0.001862 960.231534V64.234385A63.76707 63.76707 0 0 1 64.234385 0.001862z" fill="#222126" p-id="5134"></path><path d="M288.117309 529.687449L512.000233 657.687042l288.115447-288.115447L1023.998604 561.803711v304.871757A63.76707 63.76707 0 0 1 960.231534 930.907991H64.234385A63.76707 63.76707 0 0 1 0.001862 867.140921v-145.221356z" fill="#302F34" p-id="5135"></path><path d="M288.117309 622.778062L512.000233 750.777655l288.115447-288.115447L1023.998604 654.894324v304.871757A63.76707 63.76707 0 0 1 960.231534 1023.998604H64.234385A63.76707 63.76707 0 0 1 0.001862 960.231534v-145.221356z" fill="#222126" p-id="5136"></path><path d="M305.804525 337.920787m-113.570548 0a113.570548 113.570548 0 1 0 227.141096 0 113.570548 113.570548 0 1 0-227.141096 0Z" fill="#302F34" p-id="5137"></path></svg>