<svg id="图层_1" data-name="图层 1" xmlns="http://www.w3.org/2000/svg" xmlns:xlink="http://www.w3.org/1999/xlink" viewBox="0 0 12 12"><defs><style>.cls-1{fill:#fff;}.cls-2{opacity:0.2;isolation:isolate;}.cls-3{mask:url(#mask);}</style><mask id="mask" x="0" y="0" width="12" height="12" maskUnits="userSpaceOnUse"><g id="mask-2"><rect id="path-1" class="cls-1" x="4" width="8" height="8"/></g></mask></defs><title>loading</title><g id="Page-1"><g id="PC界面-未选中文件"><g id="左侧切换菜单区域"><g id="设备连接状态"><g id="Group-3"><g id="loading"><g id="Oval-8" class="cls-2"><path class="cls-1" d="M6,12a6,6,0,1,1,6-6A6,6,0,0,1,6,12ZM6,1a5,5,0,1,0,5,5A5,5,0,0,0,6,1Z"/></g><g id="Mask-2-2" data-name="Mask"><g class="cls-3"><path class="cls-1" d="M6,11A5,5,0,1,0,1,6,5,5,0,0,0,6,11Zm0,1a6,6,0,1,1,6-6A6,6,0,0,1,6,12Z"/></g></g></g></g></g></g></g></g></svg>