<?xml version="1.0" standalone="no"?><!DOCTYPE svg PUBLIC "-//W3C//DTD SVG 1.1//EN" "http://www.w3.org/Graphics/SVG/1.1/DTD/svg11.dtd"><svg t="1557737390073" class="icon" style="" viewBox="0 0 1024 1024" version="1.1" xmlns="http://www.w3.org/2000/svg" p-id="4632" xmlns:xlink="http://www.w3.org/1999/xlink" width="22" height="22"><defs><style type="text/css"></style></defs><path d="M0 0.012567m42.821079 0l193.625746 0q42.821079 0 42.821079 42.821079l0 938.340156q0 42.821079-42.821079 42.821078l-193.625746 0q-42.821079 0-42.821079-42.821078l0-938.340156q0-42.821079 42.821079-42.821079Z" fill="#FFBBC0" p-id="4633"></path><path d="M704.220563 0.012567h260.650044a61.438939 61.438939 0 0 1 41.424739 15.359735 51.199116 51.199116 0 0 1 17.686967 35.839381v921.584081a46.544651 46.544651 0 0 1-17.686967 35.839381 61.438939 61.438939 0 0 1-41.424739 15.359735H152.666454a63.300725 63.300725 0 0 1-41.424739-15.359735A46.544651 46.544651 0 0 1 93.089301 972.795764V51.211683a51.199116 51.199116 0 0 1 17.686967-35.839381 61.438939 61.438939 0 0 1 41.890186-15.359735z" fill="#FF5562" p-id="4634"></path><path d="M768.452181 773.119213c-53.991795 0-101.467338-93.089301-127.066896-154.062793a918.325956 918.325956 0 0 0-134.979487-46.544651 345.361307 345.361307 0 0 1-159.648151 66.558851 61.904385 61.904385 0 0 1-64.231618-46.544651 53.060902 53.060902 0 0 1 6.050805-46.54465 99.605552 99.605552 0 0 1 83.780371-28.392237 544.106965 544.106965 0 0 1 126.601449 18.152413 765.194056 765.194056 0 0 0 93.089302-76.333227c-13.032502-60.508046-26.530451-158.717259 8.378037-203.400123a65.627957 65.627957 0 0 1 74.936887-19.083306 69.351529 69.351529 0 0 1 52.130009 46.54465c14.428842 59.111706-52.130009 139.633952-97.27832 186.178603a884.348361 884.348361 0 0 0 39.097507 121.946984c64.697064 29.32313 139.633952 72.609655 150.339221 120.550645a46.544651 46.544651 0 0 1-14.428842 46.544651 54.457241 54.457241 0 0 1-36.770274 14.428841z m-79.591352-131.721361c32.581255 66.55885 63.300725 97.743766 79.591352 97.743766a17.221521 17.221521 0 0 0 11.170716-5.119911 13.497949 13.497949 0 0 0 5.119912-13.963395c-3.723572-17.221521-31.184916-45.613758-95.88198-78.66046zM372.357205 552.032123c-41.890186 0-53.991795 10.239823-57.24992 14.894288a20.479646 20.479646 0 0 0 0 18.152414c2.792679 10.239823 9.30893 20.945093 31.650362 20.945093a250.41022 250.41022 0 0 0 112.638054-43.286525A434.727037 434.727037 0 0 0 372.357205 552.032123z m168.957081-5.119911c27.461344 7.912591 55.388134 17.221521 81.918585 27.92679-9.30893-25.134111-17.221521-51.199116-23.737771-76.333227-18.152414 16.290628-37.701167 33.046702-57.715367 48.406437z m106.121804-279.267904a27.461344 27.461344 0 0 0-22.341433 10.239823c-18.152414 22.341432-19.548753 79.591353-6.050804 152.666454C671.639308 372.369772 698.169759 321.636103 693.049847 294.174759c0-4.189019-4.189019-16.290628-28.392237-23.272325a46.544651 46.544651 0 0 0-16.756074-3.723573z" fill="#FFFFFF" p-id="4635"></path></svg>