<?xml version="1.0" standalone="no"?><!DOCTYPE svg PUBLIC "-//W3C//DTD SVG 1.1//EN" "http://www.w3.org/Graphics/SVG/1.1/DTD/svg11.dtd"><svg t="1557737398576" class="icon" style="" viewBox="0 0 1024 1024" version="1.1" xmlns="http://www.w3.org/2000/svg" p-id="4758" xmlns:xlink="http://www.w3.org/1999/xlink" width="22" height="22"><defs><style type="text/css"></style></defs><path d="M0 0m93.090909 0l837.818182 0q93.090909 0 93.090909 93.090909l0 837.818182q0 93.090909-93.090909 93.090909l-837.818182 0q-93.090909 0-93.090909-93.090909l0-837.818182q0-93.090909 93.090909-93.090909Z" fill="#FF7D24" p-id="4759"></path><path d="M450.56 739.607273H321.163636a6.516364 6.516364 0 0 1-6.981818-6.981818V282.065455a6.516364 6.516364 0 0 1 6.981818-6.981819H512c128.930909 0.465455 186.181818 67.956364 186.181818 160.581819s-59.578182 160.581818-186.181818 160.581818H461.265455a3.723636 3.723636 0 0 0-4.189091 4.189091v132.654545a6.516364 6.516364 0 0 1-6.516364 6.516364z m55.389091-262.050909c31.185455 0 46.545455-15.825455 46.545454-41.425455s-16.290909-41.425455-46.545454-41.425454h-46.545455a3.723636 3.723636 0 0 0-4.189091 4.18909v74.938182a3.723636 3.723636 0 0 0 4.189091 4.189091z" fill="#FFFFFF" p-id="4760"></path></svg>