<svg id="图层_1" data-name="图层 1" xmlns="http://www.w3.org/2000/svg" viewBox="0 0 14 12"><defs><style>.cls-1{fill:#fff;}</style></defs><title>Refresh</title><g id="Page-1"><g id="PC界面-有选中文件"><g id="顶部"><g id="刷新"><path id="Refresh" class="cls-1" d="M13.78,6.1h-.91a5.9,5.9,0,0,0-9-4.21.59.59,0,1,0,.62,1A4.72,4.72,0,0,1,11.68,6.1h-1a.22.22,0,0,0-.22.22.22.22,0,0,0,0,.12l.77,1.34L12,9.13h0a.22.22,0,0,0,.38,0h0l.78-1.36L14,6.44a.22.22,0,0,0-.18-.34m-3.5,4.62a.59.59,0,0,0-.4.16h0A4.72,4.72,0,0,1,2.31,7.09s0-.08,0-.12h1a.22.22,0,0,0,.18-.34L2.75,5.29,2,3.94H2a.22.22,0,0,0-.38,0h0L.81,5.29,0,6.63A.22.22,0,0,0,.22,7h.92s0,.08,0,.12a5.9,5.9,0,0,0,9.48,4.7l0,0h0a.59.59,0,0,0-.39-1" transform="translate(0 -1)"/></g></g></g></g></svg>