<?xml version="1.0" encoding="UTF-8"?>
<svg width="22px" height="22px" viewBox="0 0 22 22" version="1.1" xmlns="http://www.w3.org/2000/svg" xmlns:xlink="http://www.w3.org/1999/xlink">
    <!-- Generator: Sketch 49.2 (51160) - http://www.bohemiancoding.com/sketch -->
    <title>成功icon</title>
    <desc>Created with Sketch.</desc>
    <defs></defs>
    <g id="Page-1" stroke="none" stroke-width="1" fill="none" fill-rule="evenodd">
        <g id="成功提示" transform="translate(-16.000000, -16.000000)" fill="#00C77D">
            <path d="M27,38 C20.9248678,38 16,33.0751322 16,27 C16,20.9248678 20.9248678,16 27,16 C33.0751322,16 38,20.9248678 38,27 C38,33.0751322 33.0751322,38 27,38 Z M26.0277282,28.5418155 L23.4350033,25.9490906 C23.0770227,25.59111 22.4966215,25.59111 22.1386409,25.9490906 C21.7806603,26.3070712 21.7806603,26.8874724 22.1386409,27.245453 L25.379547,30.4863591 C25.7375276,30.8443397 26.3179288,30.8443397 26.6759094,30.4863591 L31.8613591,25.3009094 C32.2193397,24.9429288 32.2193397,24.3625276 31.8613591,24.004547 C31.5033785,23.6465664 30.9229773,23.6465664 30.5649967,24.004547 L26.0277282,28.5418155 Z" id="成功icon"></path>
        </g>
    </g>
</svg>