<svg id="图层_1" data-name="图层 1" xmlns="http://www.w3.org/2000/svg" viewBox="0 0 12 12"><defs><style>.cls-1{fill:#999;}</style></defs><title>Unchecked</title><g id="Page-1"><g id="PC界面-有选中文件"><g id="右侧内容区域"><g id="img02"><g id="Unchecked"><path class="cls-1" d="M9.75,12H2.25A2.25,2.25,0,0,1,0,9.75V2.25A2.25,2.25,0,0,1,2.25,0h7.5A2.25,2.25,0,0,1,12,2.25v7.5A2.25,2.25,0,0,1,9.75,12ZM2.25.5A1.75,1.75,0,0,0,.5,2.25v7.5A1.75,1.75,0,0,0,2.25,11.5h7.5A1.75,1.75,0,0,0,11.5,9.75V2.25A1.75,1.75,0,0,0,9.75.5Z"/></g></g></g></g></g></svg>