<?xml version="1.0" standalone="no"?><!DOCTYPE svg PUBLIC "-//W3C//DTD SVG 1.1//EN" "http://www.w3.org/Graphics/SVG/1.1/DTD/svg11.dtd"><svg t="1557737449185" class="icon" style="" viewBox="0 0 1024 1024" version="1.1" xmlns="http://www.w3.org/2000/svg" p-id="5260" xmlns:xlink="http://www.w3.org/1999/xlink" width="22" height="22"><defs><style type="text/css"></style></defs><path d="M0 0m93.090909 0l837.818182 0q93.090909 0 93.090909 93.090909l0 837.818182q0 93.090909-93.090909 93.090909l-837.818182 0q-93.090909 0-93.090909-93.090909l0-837.818182q0-93.090909 93.090909-93.090909Z" fill="#6BC8FF" p-id="5261"></path><path d="M234.589091 341.178182m46.545454 0l305.338182 0q46.545455 0 46.545455 46.545454l0 248.087273q0 46.545455-46.545455 46.545455l-305.338182 0q-46.545455 0-46.545454-46.545455l0-248.087273q0-46.545455 46.545454-46.545454Z" fill="#FFFFFF" p-id="5262"></path><path d="M693.061818 440.785455l77.730909-26.065455a46.545455 46.545455 0 0 1 61.44 44.218182v127.069091a46.545455 46.545455 0 0 1-61.44 44.218182L693.061818 605.090909a46.545455 46.545455 0 0 1-31.650909-44.218182v-76.334545a46.545455 46.545455 0 0 1 31.650909-43.752727z" fill="#FFFFFF" p-id="5263"></path></svg>