<?xml version="1.0" standalone="no"?><!DOCTYPE svg PUBLIC "-//W3C//DTD SVG 1.1//EN" "http://www.w3.org/Graphics/SVG/1.1/DTD/svg11.dtd"><svg t="1557737465672" class="icon" style="" viewBox="0 0 1024 1024" version="1.1" xmlns="http://www.w3.org/2000/svg" p-id="5640" xmlns:xlink="http://www.w3.org/1999/xlink" width="22" height="22"><defs><style type="text/css"></style></defs><path d="M0 0m93.090909 0l837.818182 0q93.090909 0 93.090909 93.090909l0 837.818182q0 93.090909-93.090909 93.090909l-837.818182 0q-93.090909 0-93.090909-93.090909l0-837.818182q0-93.090909 93.090909-93.090909Z" fill="#3FCD67" p-id="5641"></path><path d="M284.392727 741.934545V291.374545a6.516364 6.516364 0 0 1 6.981818-6.981818h412.858182a6.516364 6.516364 0 0 1 6.981818 6.981818v105.192728a6.516364 6.516364 0 0 1-6.981818 6.981818H430.545455a3.723636 3.723636 0 0 0-4.189091 4.189091v46.545454a3.723636 3.723636 0 0 0 4.189091 4.189091h216.901818a6.516364 6.516364 0 0 1 6.981818 6.981818v102.4a6.516364 6.516364 0 0 1-6.981818 6.981819H430.545455a3.723636 3.723636 0 0 0-4.189091 4.189091v49.338181a3.723636 3.723636 0 0 0 4.189091 4.189091h273.687272a6.516364 6.516364 0 0 1 6.981818 6.981818V744.727273a6.516364 6.516364 0 0 1-6.981818 6.981818H291.374545a6.516364 6.516364 0 0 1-6.981818-9.774546z" fill="#FFFFFF" p-id="5642"></path></svg>